<svg xmlns="http://www.w3.org/2000/svg" viewBox="0 0 24 24">
  <path fill="currentColor" d="M20.317 4.369A18.124 18.124 0 0 0 15.892 3c-.208.375-.447.905-.612 1.312a16.357 16.357 0 0 0-4.56 0c-.17-.415-.42-.937-.63-1.312a18.12 18.12 0 0 0-4.43 1.376c-2.808 4.08-3.58 8.07-3.2 12.02a18.26 18.26 0 0 0 4.47 2.262c.362-.5.686-1.03.97-1.59-.53-.2-1.04-.44-1.52-.7.128-.094.255-.19.376-.288 2.938 1.38 6.13 1.38 9.037 0 .123.098.25.193.378.288-.48.26-.99.5-1.52.7.28.56.6 1.09.96 1.59a18.26 18.26 0 0 0 4.47-2.26c.37-3.88-.45-7.86-3.26-11.94ZM9.27 14.6c-.885 0-1.6-.81-1.6-1.81 0-.99.7-1.81 1.6-1.81s1.62.82 1.6 1.81c0 1-.7 1.81-1.6 1.81Zm5.46 0c-.884 0-1.6-.81-1.6-1.81 0-.99.71-1.81 1.6-1.81s1.6.82 1.6 1.81c0 1-.71 1.81-1.6 1.81Z" />
</svg>
